<?xml version="1.0" encoding="UTF-8" standalone="no"?>
<!DOCTYPE svg PUBLIC "-//W3C//DTD SVG 1.1//EN"
 "http://www.w3.org/Graphics/SVG/1.1/DTD/svg11.dtd">
<!-- Generated by graphviz version 2.47.0 (20210316.0004)
 -->
<!-- Title: dependencies Pages: 1 -->
<svg width="924pt" height="211pt"
 viewBox="0.00 0.00 924.00 211.00" xmlns="http://www.w3.org/2000/svg" xmlns:xlink="http://www.w3.org/1999/xlink">
<g id="graph0" class="graph" transform="scale(1 1) rotate(0) translate(4 207)">
<title>dependencies</title>
<polygon fill="white" stroke="transparent" points="-4,4 -4,-207 920,-207 920,4 -4,4"/>
<text text-anchor="start" x="437.01" y="-42.4" font-family="Times-12" font-weight="bold" font-size="14.00">Legend</text>
<polygon fill="#ffffb3" stroke="transparent" points="224,-10 224,-30 244,-30 244,-10 224,-10"/>
<text text-anchor="start" x="247.63" y="-15.4" font-family="Times-12" font-size="14.00"> &#160;Declarations</text>
<polygon fill="#8dd3c7" stroke="transparent" points="337,-10 337,-30 357,-30 357,-10 337,-10"/>
<text text-anchor="start" x="360.73" y="-15.4" font-family="Times-12" font-size="14.00"> &#160;Module</text>
<polygon fill="#80b1d3" stroke="transparent" points="423,-10 423,-30 443,-30 443,-10 423,-10"/>
<text text-anchor="start" x="446.78" y="-15.4" font-family="Times-12" font-size="14.00"> &#160;Bootstrap</text>
<polygon fill="#fdb462" stroke="transparent" points="520,-10 520,-30 540,-30 540,-10 520,-10"/>
<text text-anchor="start" x="543.67" y="-15.4" font-family="Times-12" font-size="14.00"> &#160;Providers</text>
<polygon fill="#fb8072" stroke="transparent" points="616,-10 616,-30 636,-30 636,-10 616,-10"/>
<text text-anchor="start" x="639.73" y="-15.4" font-family="Times-12" font-size="14.00"> &#160;Exports</text>
<g id="clust1" class="cluster">
<title>cluster_AdminModule</title>
<polygon fill="none" stroke="black" stroke-dasharray="1,5" points="8,-70 8,-195 184,-195 184,-70 8,-70"/>
</g>
<g id="clust3" class="cluster">
<title>cluster_AdminModule_imports</title>
<polygon fill="none" stroke="black" points="16,-78 16,-130 176,-130 176,-78 16,-78"/>
</g>
<g id="clust13" class="cluster">
<title>cluster_AuthModule</title>
<polygon fill="none" stroke="black" stroke-dasharray="1,5" points="192,-70 192,-195 356,-195 356,-70 192,-70"/>
</g>
<g id="clust15" class="cluster">
<title>cluster_AuthModule_imports</title>
<polygon fill="none" stroke="black" points="200,-78 200,-130 348,-130 348,-78 200,-78"/>
</g>
<g id="clust25" class="cluster">
<title>cluster_BassoleModule</title>
<polygon fill="none" stroke="black" stroke-dasharray="1,5" points="364,-70 364,-195 544,-195 544,-70 364,-70"/>
</g>
<g id="clust27" class="cluster">
<title>cluster_BassoleModule_imports</title>
<polygon fill="none" stroke="black" points="372,-78 372,-130 536,-130 536,-78 372,-78"/>
</g>
<g id="clust37" class="cluster">
<title>cluster_CocktailModule</title>
<polygon fill="none" stroke="black" stroke-dasharray="1,5" points="552,-70 552,-195 736,-195 736,-70 552,-70"/>
</g>
<g id="clust39" class="cluster">
<title>cluster_CocktailModule_imports</title>
<polygon fill="none" stroke="black" points="560,-78 560,-130 728,-130 728,-78 560,-78"/>
</g>
<g id="clust49" class="cluster">
<title>cluster_UserModule</title>
<polygon fill="none" stroke="black" stroke-dasharray="1,5" points="744,-70 744,-195 908,-195 908,-70 744,-70"/>
</g>
<g id="clust51" class="cluster">
<title>cluster_UserModule_imports</title>
<polygon fill="none" stroke="black" points="752,-78 752,-130 900,-130 900,-78 752,-78"/>
</g>
<!-- AdminRoutingModule -->
<g id="node1" class="node">
<title>AdminRoutingModule</title>
<polygon fill="#8dd3c7" stroke="black" points="167.56,-122 164.56,-126 143.56,-126 140.56,-122 24.44,-122 24.44,-86 167.56,-86 167.56,-122"/>
<text text-anchor="middle" x="96" y="-99.8" font-family="Times,serif" font-size="14.00">AdminRoutingModule</text>
</g>
<!-- AdminModule -->
<g id="node2" class="node">
<title>AdminModule</title>
<polygon fill="#8dd3c7" stroke="black" points="145.44,-187 142.44,-191 121.44,-191 118.44,-187 46.56,-187 46.56,-151 145.44,-151 145.44,-187"/>
<text text-anchor="middle" x="96" y="-164.8" font-family="Times,serif" font-size="14.00">AdminModule</text>
</g>
<!-- AdminRoutingModule&#45;&gt;AdminModule -->
<g id="edge1" class="edge">
<title>AdminRoutingModule&#45;&gt;AdminModule</title>
<path fill="none" stroke="black" d="M96,-122.11C96,-122.11 96,-140.99 96,-140.99"/>
<polygon fill="black" stroke="black" points="92.5,-140.99 96,-150.99 99.5,-140.99 92.5,-140.99"/>
</g>
<!-- AuthRoutingModule -->
<g id="node3" class="node">
<title>AuthRoutingModule</title>
<polygon fill="#8dd3c7" stroke="black" points="340.17,-122 337.17,-126 316.17,-126 313.17,-122 207.83,-122 207.83,-86 340.17,-86 340.17,-122"/>
<text text-anchor="middle" x="274" y="-99.8" font-family="Times,serif" font-size="14.00">AuthRoutingModule</text>
</g>
<!-- AuthModule -->
<g id="node4" class="node">
<title>AuthModule</title>
<polygon fill="#8dd3c7" stroke="black" points="317.55,-187 314.55,-191 293.55,-191 290.55,-187 230.45,-187 230.45,-151 317.55,-151 317.55,-187"/>
<text text-anchor="middle" x="274" y="-164.8" font-family="Times,serif" font-size="14.00">AuthModule</text>
</g>
<!-- AuthRoutingModule&#45;&gt;AuthModule -->
<g id="edge2" class="edge">
<title>AuthRoutingModule&#45;&gt;AuthModule</title>
<path fill="none" stroke="black" d="M274,-122.11C274,-122.11 274,-140.99 274,-140.99"/>
<polygon fill="black" stroke="black" points="270.5,-140.99 274,-150.99 277.5,-140.99 270.5,-140.99"/>
</g>
<!-- BassoleRoutingModule -->
<g id="node5" class="node">
<title>BassoleRoutingModule</title>
<polygon fill="#8dd3c7" stroke="black" points="528.21,-122 525.21,-126 504.21,-126 501.21,-122 379.79,-122 379.79,-86 528.21,-86 528.21,-122"/>
<text text-anchor="middle" x="454" y="-99.8" font-family="Times,serif" font-size="14.00">BassoleRoutingModule</text>
</g>
<!-- BassoleModule -->
<g id="node6" class="node">
<title>BassoleModule</title>
<polygon fill="#8dd3c7" stroke="black" points="505.6,-187 502.6,-191 481.6,-191 478.6,-187 402.4,-187 402.4,-151 505.6,-151 505.6,-187"/>
<text text-anchor="middle" x="454" y="-164.8" font-family="Times,serif" font-size="14.00">BassoleModule</text>
</g>
<!-- BassoleRoutingModule&#45;&gt;BassoleModule -->
<g id="edge3" class="edge">
<title>BassoleRoutingModule&#45;&gt;BassoleModule</title>
<path fill="none" stroke="black" d="M454,-122.11C454,-122.11 454,-140.99 454,-140.99"/>
<polygon fill="black" stroke="black" points="450.5,-140.99 454,-150.99 457.5,-140.99 450.5,-140.99"/>
</g>
<!-- CocktailRoutingModule -->
<g id="node7" class="node">
<title>CocktailRoutingModule</title>
<polygon fill="#8dd3c7" stroke="black" points="720.11,-122 717.11,-126 696.11,-126 693.11,-122 567.89,-122 567.89,-86 720.11,-86 720.11,-122"/>
<text text-anchor="middle" x="644" y="-99.8" font-family="Times,serif" font-size="14.00">CocktailRoutingModule</text>
</g>
<!-- CocktailModule -->
<g id="node8" class="node">
<title>CocktailModule</title>
<polygon fill="#8dd3c7" stroke="black" points="697.49,-187 694.49,-191 673.49,-191 670.49,-187 590.51,-187 590.51,-151 697.49,-151 697.49,-187"/>
<text text-anchor="middle" x="644" y="-164.8" font-family="Times,serif" font-size="14.00">CocktailModule</text>
</g>
<!-- CocktailRoutingModule&#45;&gt;CocktailModule -->
<g id="edge4" class="edge">
<title>CocktailRoutingModule&#45;&gt;CocktailModule</title>
<path fill="none" stroke="black" d="M644,-122.11C644,-122.11 644,-140.99 644,-140.99"/>
<polygon fill="black" stroke="black" points="640.5,-140.99 644,-150.99 647.5,-140.99 640.5,-140.99"/>
</g>
<!-- UserRoutingModule -->
<g id="node9" class="node">
<title>UserRoutingModule</title>
<polygon fill="#8dd3c7" stroke="black" points="891.59,-122 888.59,-126 867.59,-126 864.59,-122 760.41,-122 760.41,-86 891.59,-86 891.59,-122"/>
<text text-anchor="middle" x="826" y="-99.8" font-family="Times,serif" font-size="14.00">UserRoutingModule</text>
</g>
<!-- UserModule -->
<g id="node10" class="node">
<title>UserModule</title>
<polygon fill="#8dd3c7" stroke="black" points="868.98,-187 865.98,-191 844.98,-191 841.98,-187 783.02,-187 783.02,-151 868.98,-151 868.98,-187"/>
<text text-anchor="middle" x="826" y="-164.8" font-family="Times,serif" font-size="14.00">UserModule</text>
</g>
<!-- UserRoutingModule&#45;&gt;UserModule -->
<g id="edge5" class="edge">
<title>UserRoutingModule&#45;&gt;UserModule</title>
<path fill="none" stroke="black" d="M826,-122.11C826,-122.11 826,-140.99 826,-140.99"/>
<polygon fill="black" stroke="black" points="822.5,-140.99 826,-150.99 829.5,-140.99 822.5,-140.99"/>
</g>
</g>
</svg>
